# WaveFront *.obj file (generated by Autodesk ATF)

mtllib Door.mtl

g Body1

v 0.500000 0.000000 -3.500000
v 0.500000 0.000000 -4.500000
v 0.500000 1.000000 -4.500000
v 0.500000 1.000000 -3.500000
v 3.500000 0.000000 -3.500000
v 3.500000 1.000000 -3.500000
v 3.500000 0.000000 -4.500000
v 3.500000 1.000000 -4.500000
v 3.753229 1.200000 -2.500000
v 3.744600 1.200000 -2.434460
v 3.719303 1.200000 -2.373385
v 3.679060 1.200000 -2.320940
v 3.626615 1.200000 -2.280697
v 3.565540 1.200000 -2.255400
v 3.500000 1.200000 -2.246771
v 3.434460 1.200000 -2.255400
v 3.373385 1.200000 -2.280697
v 3.320940 1.200000 -2.320940
v 3.280697 1.200000 -2.373385
v 3.255400 1.200000 -2.434460
v 3.246771 1.200000 -2.500000
v 3.255400 1.200000 -2.565540
v 3.280697 1.200000 -2.626615
v 3.320940 1.200000 -2.679060
v 3.373385 1.200000 -2.719303
v 3.434460 1.200000 -2.744600
v 3.500000 1.200000 -2.753229
v 3.565540 1.200000 -2.744600
v 3.626615 1.200000 -2.719303
v 3.679060 1.200000 -2.679060
v 3.719303 1.200000 -2.626615
v 3.744600 1.200000 -2.565540
v 3.753229 1.000000 -2.500000
v 3.744600 1.000000 -2.565540
v 3.719303 1.000000 -2.626615
v 3.679060 1.000000 -2.679060
v 3.626615 1.000000 -2.719303
v 3.565540 1.000000 -2.744600
v 3.500000 1.000000 -2.753229
v 3.434460 1.000000 -2.744600
v 3.373385 1.000000 -2.719303
v 3.320940 1.000000 -2.679060
v 3.280697 1.000000 -2.626615
v 3.255400 1.000000 -2.565540
v 3.246771 1.000000 -2.500000
v 3.255400 1.000000 -2.434460
v 3.280697 1.000000 -2.373385
v 3.320940 1.000000 -2.320940
v 3.373385 1.000000 -2.280697
v 3.434460 1.000000 -2.255400
v 3.500000 1.000000 -2.246771
v 3.565540 1.000000 -2.255400
v 3.626615 1.000000 -2.280697
v 3.679060 1.000000 -2.320940
v 3.719303 1.000000 -2.373385
v 3.744600 1.000000 -2.434460
v 3.971650 0.000000 -4.814466
v 0.000000 0.000000 -4.814466
v 0.000000 1.000000 -4.814466
v 3.971650 1.000000 -4.814466
v 3.971650 0.000000 0.000000
v 3.971650 1.000000 0.000000
v 0.000000 0.000000 0.000000
v 0.000000 1.000000 0.000000
vt -0.000000 1.000000 0.000000
vt -1.000000 1.000000 0.000000
vt -0.000000 0.000000 0.000000
vt -1.000000 0.000000 0.000000
vt -0.000000 1.000000 0.000000
vt -3.000000 1.000000 0.000000
vt -0.000000 0.000000 0.000000
vt -3.000000 0.000000 0.000000
vt -0.000000 1.000000 0.000000
vt -1.000000 1.000000 0.000000
vt -0.000000 0.000000 0.000000
vt -1.000000 0.000000 0.000000
vt -0.000000 1.000000 0.000000
vt -3.000000 1.000000 0.000000
vt -0.000000 0.000000 0.000000
vt -3.000000 0.000000 0.000000
vt -0.200000 0.729247 0.000000
vt -0.000000 0.729247 0.000000
vt -0.200000 0.795542 0.000000
vt -0.000000 0.795542 0.000000
vt -0.200000 -0.795542 0.000000
vt -0.000000 -0.795542 0.000000
vt -0.200000 -0.729247 0.000000
vt -0.000000 -0.729247 0.000000
vt -0.200000 -0.662952 0.000000
vt -0.000000 -0.662952 0.000000
vt -0.200000 -0.596657 0.000000
vt -0.000000 -0.596657 0.000000
vt -0.200000 -0.530362 0.000000
vt -0.000000 -0.530362 0.000000
vt -0.200000 -0.464066 0.000000
vt -0.000000 -0.464066 0.000000
vt -0.200000 -0.397771 0.000000
vt -0.000000 -0.397771 0.000000
vt -0.200000 -0.331476 0.000000
vt -0.000000 -0.331476 0.000000
vt -0.200000 -0.265181 0.000000
vt -0.000000 -0.265181 0.000000
vt -0.200000 -0.198886 0.000000
vt -0.000000 -0.198886 0.000000
vt -0.200000 -0.132590 0.000000
vt -0.000000 -0.132590 0.000000
vt -0.200000 -0.066295 0.000000
vt -0.000000 -0.066295 0.000000
vt -0.200000 0.000000 0.000000
vt -0.000000 0.000000 0.000000
vt -0.200000 0.066295 0.000000
vt -0.000000 0.066295 0.000000
vt -0.200000 0.132590 0.000000
vt -0.000000 0.132590 0.000000
vt -0.200000 0.198886 0.000000
vt -0.000000 0.198886 0.000000
vt -0.200000 0.265181 0.000000
vt -0.000000 0.265181 0.000000
vt -0.200000 0.331476 0.000000
vt -0.000000 0.331476 0.000000
vt -0.200000 0.397771 0.000000
vt -0.000000 0.397771 0.000000
vt -0.200000 0.464066 0.000000
vt -0.000000 0.464066 0.000000
vt -0.200000 0.530362 0.000000
vt -0.000000 0.530362 0.000000
vt -0.200000 0.596657 0.000000
vt -0.000000 0.596657 0.000000
vt -0.200000 0.662952 0.000000
vt -0.000000 0.662952 0.000000
vt -0.244600 -0.065540 0.000000
vt 0.244600 -0.065540 0.000000
vt -0.253229 0.000000 0.000000
vt 0.253229 0.000000 0.000000
vt -0.244600 0.065540 0.000000
vt 0.244600 0.065540 0.000000
vt -0.219303 0.126615 0.000000
vt 0.219303 0.126615 0.000000
vt -0.179060 0.179060 0.000000
vt 0.179060 0.179060 0.000000
vt -0.126615 0.219303 0.000000
vt 0.126615 0.219303 0.000000
vt -0.065540 0.244600 0.000000
vt 0.065540 0.244600 0.000000
vt 0.000000 0.253229 0.000000
vt 0.219303 -0.126615 0.000000
vt -0.219303 -0.126615 0.000000
vt 0.179060 -0.179060 0.000000
vt -0.179060 -0.179060 0.000000
vt 0.126615 -0.219303 0.000000
vt -0.126615 -0.219303 0.000000
vt 0.065540 -0.244600 0.000000
vt -0.065540 -0.244600 0.000000
vt 0.000000 -0.253229 0.000000
vt 0.000000 0.000000 0.000000
vt 3.971650 0.000000 0.000000
vt 0.000000 1.000000 0.000000
vt 3.971650 1.000000 0.000000
vt 0.000000 0.000000 0.000000
vt 4.814466 0.000000 0.000000
vt 0.000000 1.000000 0.000000
vt 4.814466 1.000000 0.000000
vt 0.000000 0.000000 0.000000
vt 3.971650 0.000000 0.000000
vt 0.000000 1.000000 0.000000
vt 3.971650 1.000000 0.000000
vt 0.000000 0.000000 0.000000
vt 4.814466 0.000000 0.000000
vt 0.000000 1.000000 0.000000
vt 4.814466 1.000000 0.000000
vt -2.092767 -1.485825 0.000000
vt -2.092767 1.514175 0.000000
vt -2.407233 1.985825 0.000000
vt -1.092767 1.514175 0.000000
vt -0.219382 1.733478 0.000000
vt -0.271827 1.693235 0.000000
vt -0.312070 1.640789 0.000000
vt -0.337367 1.579715 0.000000
vt -0.345996 1.514175 0.000000
vt -0.337367 1.448634 0.000000
vt -0.312070 1.387560 0.000000
vt -0.271827 1.335115 0.000000
vt -0.219382 1.294872 0.000000
vt -1.092767 -1.485825 0.000000
vt -0.158308 1.269575 0.000000
vt -0.092767 1.260946 0.000000
vt -0.027227 1.269575 0.000000
vt 2.407233 -1.985825 0.000000
vt 0.033847 1.294872 0.000000
vt 0.086293 1.335115 0.000000
vt 2.407233 1.985825 0.000000
vt 0.126536 1.387560 0.000000
vt 0.151833 1.448634 0.000000
vt 0.160462 1.514175 0.000000
vt 0.151833 1.579715 0.000000
vt 0.126536 1.640789 0.000000
vt 0.086293 1.693235 0.000000
vt 0.033847 1.733478 0.000000
vt -0.027227 1.758775 0.000000
vt -0.092767 1.767404 0.000000
vt -0.158308 1.758775 0.000000
vt -2.407233 -1.985825 0.000000
vt -1.514175 2.092767 0.000000
vt -1.985825 2.407233 0.000000
vt -1.514175 1.092767 0.000000
vt -1.985825 -2.407233 0.000000
vt 1.485825 1.092767 0.000000
vt 1.985825 -2.407233 0.000000
vt 1.985825 2.407233 0.000000
vt 1.485825 2.092767 0.000000
vn 1.000000 0.000000 0.000000
vn 1.000000 0.000000 0.000000
vn 1.000000 0.000000 0.000000
vn 1.000000 0.000000 0.000000
vn -0.000000 -0.000000 -1.000000
vn -0.000000 -0.000000 -1.000000
vn -0.000000 -0.000000 -1.000000
vn -0.000000 -0.000000 -1.000000
vn -1.000000 -0.000000 0.000000
vn -1.000000 -0.000000 0.000000
vn -1.000000 -0.000000 0.000000
vn -1.000000 -0.000000 0.000000
vn -0.000000 -0.000000 1.000000
vn -0.000000 -0.000000 1.000000
vn -0.000000 -0.000000 1.000000
vn -0.000000 -0.000000 1.000000
vn 0.965926 -0.000000 0.258819
vn 0.965926 -0.000000 0.258819
vn 1.000000 -0.000000 0.000000
vn 1.000000 -0.000000 0.000000
vn 0.965926 -0.000000 -0.258819
vn 0.965926 -0.000000 -0.258819
vn 0.866025 -0.000000 -0.500000
vn 0.866025 -0.000000 -0.500000
vn 0.707107 -0.000000 -0.707107
vn 0.707107 -0.000000 -0.707107
vn 0.500000 -0.000000 -0.866025
vn 0.500000 -0.000000 -0.866025
vn 0.258819 -0.000000 -0.965926
vn 0.258819 -0.000000 -0.965926
vn -0.000000 0.000000 -1.000000
vn -0.000000 0.000000 -1.000000
vn -0.258819 0.000000 -0.965926
vn -0.258819 0.000000 -0.965926
vn -0.500000 0.000000 -0.866025
vn -0.500000 0.000000 -0.866025
vn -0.707107 0.000000 -0.707107
vn -0.707107 0.000000 -0.707107
vn -0.866025 0.000000 -0.500000
vn -0.866025 0.000000 -0.500000
vn -0.965926 0.000000 -0.258819
vn -0.965926 0.000000 -0.258819
vn -1.000000 -0.000000 0.000000
vn -1.000000 -0.000000 0.000000
vn -0.965926 -0.000000 0.258819
vn -0.965926 -0.000000 0.258819
vn -0.866025 -0.000000 0.500000
vn -0.866025 -0.000000 0.500000
vn -0.707107 -0.000000 0.707107
vn -0.707107 -0.000000 0.707107
vn -0.500000 -0.000000 0.866025
vn -0.500000 -0.000000 0.866025
vn -0.258819 -0.000000 0.965926
vn -0.258819 -0.000000 0.965926
vn -0.000000 -0.000000 1.000000
vn -0.000000 -0.000000 1.000000
vn 0.258819 -0.000000 0.965926
vn 0.258819 -0.000000 0.965926
vn 0.500000 -0.000000 0.866025
vn 0.500000 -0.000000 0.866025
vn 0.707107 -0.000000 0.707107
vn 0.707107 -0.000000 0.707107
vn 0.866025 -0.000000 0.500000
vn 0.866025 -0.000000 0.500000
vn 0.000000 1.000000 0.000000
vn 0.000000 1.000000 0.000000
vn 0.000000 1.000000 0.000000
vn 0.000000 1.000000 0.000000
vn 0.000000 1.000000 0.000000
vn 0.000000 1.000000 0.000000
vn 0.000000 1.000000 0.000000
vn 0.000000 1.000000 0.000000
vn 0.000000 1.000000 0.000000
vn 0.000000 1.000000 0.000000
vn 0.000000 1.000000 0.000000
vn 0.000000 1.000000 0.000000
vn 0.000000 1.000000 0.000000
vn 0.000000 1.000000 0.000000
vn 0.000000 1.000000 0.000000
vn 0.000000 1.000000 0.000000
vn 0.000000 1.000000 0.000000
vn 0.000000 1.000000 0.000000
vn 0.000000 1.000000 0.000000
vn 0.000000 1.000000 0.000000
vn 0.000000 1.000000 0.000000
vn 0.000000 1.000000 0.000000
vn 0.000000 1.000000 0.000000
vn 0.000000 1.000000 0.000000
vn 0.000000 0.000000 -1.000000
vn 0.000000 0.000000 -1.000000
vn 0.000000 0.000000 -1.000000
vn 0.000000 0.000000 -1.000000
vn 1.000000 -0.000000 0.000000
vn 1.000000 -0.000000 0.000000
vn 1.000000 -0.000000 0.000000
vn 1.000000 -0.000000 0.000000
vn 0.000000 0.000000 1.000000
vn 0.000000 0.000000 1.000000
vn 0.000000 0.000000 1.000000
vn 0.000000 0.000000 1.000000
vn -1.000000 0.000000 0.000000
vn -1.000000 0.000000 0.000000
vn -1.000000 0.000000 0.000000
vn -1.000000 0.000000 0.000000
vn 0.000000 1.000000 0.000000
vn 0.000000 1.000000 0.000000
vn 0.000000 1.000000 0.000000
vn 0.000000 1.000000 0.000000
vn 0.000000 1.000000 0.000000
vn 0.000000 1.000000 0.000000
vn 0.000000 1.000000 0.000000
vn 0.000000 1.000000 0.000000
vn 0.000000 1.000000 0.000000
vn 0.000000 1.000000 0.000000
vn 0.000000 1.000000 0.000000
vn 0.000000 1.000000 0.000000
vn 0.000000 1.000000 0.000000
vn 0.000000 1.000000 0.000000
vn 0.000000 1.000000 0.000000
vn 0.000000 1.000000 0.000000
vn 0.000000 1.000000 0.000000
vn 0.000000 1.000000 0.000000
vn 0.000000 1.000000 0.000000
vn 0.000000 1.000000 0.000000
vn 0.000000 1.000000 0.000000
vn 0.000000 1.000000 0.000000
vn 0.000000 1.000000 0.000000
vn 0.000000 1.000000 0.000000
vn 0.000000 1.000000 0.000000
vn 0.000000 1.000000 0.000000
vn 0.000000 1.000000 0.000000
vn 0.000000 1.000000 0.000000
vn 0.000000 1.000000 0.000000
vn 0.000000 1.000000 0.000000
vn 0.000000 1.000000 0.000000
vn 0.000000 1.000000 0.000000
vn -0.000000 -1.000000 -0.000000
vn -0.000000 -1.000000 -0.000000
vn -0.000000 -1.000000 -0.000000
vn -0.000000 -1.000000 -0.000000
vn -0.000000 -1.000000 -0.000000
vn -0.000000 -1.000000 -0.000000
vn -0.000000 -1.000000 -0.000000
vn -0.000000 -1.000000 -0.000000
usemtl Steel_-_Satin
f 1/1/1 2/2/2 4/3/3
f 4/3/3 2/2/2 3/4/4
f 5/5/5 1/6/6 6/7/7
f 6/7/7 1/6/6 4/8/8
f 7/9/9 5/10/10 8/11/11
f 8/11/11 5/10/10 6/12/12
f 2/13/13 7/14/14 3/15/15
f 3/15/15 7/14/14 8/16/16
f 10/17/17 56/18/18 9/19/19
f 9/19/19 56/18/18 33/20/20
f 9/21/19 33/22/20 32/23/21
f 32/23/21 33/22/20 34/24/22
f 32/23/21 34/24/22 31/25/23
f 31/25/23 34/24/22 35/26/24
f 31/25/23 35/26/24 30/27/25
f 30/27/25 35/26/24 36/28/26
f 30/27/25 36/28/26 29/29/27
f 29/29/27 36/28/26 37/30/28
f 29/29/27 37/30/28 28/31/29
f 28/31/29 37/30/28 38/32/30
f 28/31/29 38/32/30 27/33/31
f 27/33/31 38/32/30 39/34/32
f 27/33/31 39/34/32 26/35/33
f 26/35/33 39/34/32 40/36/34
f 26/35/33 40/36/34 25/37/35
f 25/37/35 40/36/34 41/38/36
f 25/37/35 41/38/36 24/39/37
f 24/39/37 41/38/36 42/40/38
f 24/39/37 42/40/38 23/41/39
f 23/41/39 42/40/38 43/42/40
f 23/41/39 43/42/40 22/43/41
f 22/43/41 43/42/40 44/44/42
f 22/43/41 44/44/42 21/45/43
f 21/45/43 44/44/42 45/46/44
f 21/45/43 45/46/44 20/47/45
f 20/47/45 45/46/44 46/48/46
f 20/47/45 46/48/46 19/49/47
f 19/49/47 46/48/46 47/50/48
f 19/49/47 47/50/48 18/51/49
f 18/51/49 47/50/48 48/52/50
f 18/51/49 48/52/50 17/53/51
f 17/53/51 48/52/50 49/54/52
f 17/53/51 49/54/52 16/55/53
f 16/55/53 49/54/52 50/56/54
f 16/55/53 50/56/54 15/57/55
f 15/57/55 50/56/54 51/58/56
f 15/57/55 51/58/56 14/59/57
f 14/59/57 51/58/56 52/60/58
f 14/59/57 52/60/58 13/61/59
f 13/61/59 52/60/58 53/62/60
f 13/61/59 53/62/60 12/63/61
f 12/63/61 53/62/60 54/64/62
f 12/63/61 54/64/62 11/65/63
f 11/65/63 54/64/62 55/66/64
f 11/65/63 55/66/64 10/17/17
f 10/17/17 55/66/64 56/18/18
f 32/67/65 22/68/66 9/69/67
f 9/69/67 22/68/66 21/70/68
f 9/69/67 21/70/68 10/71/69
f 10/71/69 21/70/68 20/72/70
f 10/71/69 20/72/70 11/73/71
f 11/73/71 20/72/70 19/74/72
f 11/73/71 19/74/72 12/75/73
f 12/75/73 19/74/72 18/76/74
f 12/75/73 18/76/74 13/77/75
f 13/77/75 18/76/74 17/78/76
f 13/77/75 17/78/76 14/79/77
f 14/79/77 17/78/76 16/80/78
f 14/79/77 16/80/78 15/81/79
f 22/68/66 32/67/65 23/82/80
f 23/82/80 32/67/65 31/83/81
f 23/82/80 31/83/81 24/84/82
f 24/84/82 31/83/81 30/85/83
f 24/84/82 30/85/83 25/86/84
f 25/86/84 30/85/83 29/87/85
f 25/86/84 29/87/85 26/88/86
f 26/88/86 29/87/85 28/89/87
f 26/88/86 28/89/87 27/90/88
f 57/91/89 58/92/90 60/93/91
f 60/93/91 58/92/90 59/94/92
f 61/95/93 57/96/94 62/97/95
f 62/97/95 57/96/94 60/98/96
f 63/99/97 61/100/98 64/101/99
f 64/101/99 61/100/98 62/102/100
f 58/103/101 63/104/102 59/105/103
f 59/105/103 63/104/102 64/106/104
f 3/107/105 8/108/106 60/109/107
f 60/109/107 8/108/106 6/110/108
f 60/109/107 6/110/108 35/111/109
f 35/111/109 6/110/108 36/112/110
f 36/112/110 6/110/108 37/113/111
f 37/113/111 6/110/108 38/114/112
f 38/114/112 6/110/108 39/115/113
f 39/115/113 6/110/108 40/116/114
f 40/116/114 6/110/108 41/117/115
f 41/117/115 6/110/108 42/118/116
f 42/118/116 6/110/108 43/119/117
f 43/119/117 6/110/108 4/120/118
f 43/119/117 4/120/118 44/121/119
f 44/121/119 4/120/118 45/122/120
f 45/122/120 4/120/118 46/123/121
f 46/123/121 4/120/118 64/124/122
f 46/123/121 64/124/122 47/125/123
f 47/125/123 64/124/122 48/126/124
f 48/126/124 64/124/122 62/127/125
f 48/126/124 62/127/125 49/128/126
f 49/128/126 62/127/125 50/129/127
f 50/129/127 62/127/125 51/130/128
f 51/130/128 62/127/125 52/131/129
f 52/131/129 62/127/125 53/132/130
f 53/132/130 62/127/125 54/133/131
f 54/133/131 62/127/125 55/134/132
f 55/134/132 62/127/125 56/135/133
f 56/135/133 62/127/125 33/136/134
f 33/136/134 62/127/125 60/109/107
f 33/136/134 60/109/107 34/137/135
f 34/137/135 60/109/107 35/111/109
f 64/124/122 4/120/118 59/138/136
f 59/138/136 4/120/118 3/107/105
f 59/138/136 3/107/105 60/109/107
f 7/139/137 57/140/138 5/141/139
f 5/141/139 57/140/138 61/142/140
f 5/141/139 61/142/140 1/143/141
f 1/143/141 61/142/140 63/144/142
f 1/143/141 63/144/142 58/145/143
f 7/139/137 2/146/144 57/140/138
f 57/140/138 2/146/144 58/145/143
f 58/145/143 2/146/144 1/143/141
# 64 vertices
# 146 texture params
# 144 normals
# 128 facets

# 1 groups
